<svg width="198" height="198" xmlns="http://www.w3.org/2000/svg">

 <g>
  <title>Layer 1</title>
  <!-- <g clip-path="url(#clip0)"> -->
  <!-- <path d="M29.3955 8.71253C29.3552 8.70041 29.3149 8.68991 29.2738 8.67941C28.4025 8.45233 27.5053 8.34072 26.6051 8.34746C25.8042 8.34582 25.0155 8.5434 24.3097 8.92246C23.6038 9.30153 23.003 9.85023 22.561 10.5193C22.453 9.44752 21.6338 8.61561 19.8867 8.61561H18.812C16.931 8.6148 16.1248 9.57917 16.1248 10.7689V25.8459C16.1248 27.0349 16.931 27.9992 18.812 27.9992H19.8875C21.7685 27.9992 22.5747 27.0349 22.5747 25.8459V17.9686C22.5745 17.4101 22.7188 16.8612 22.9935 16.3752C23.2682 15.8893 23.6639 15.483 24.1421 15.196C24.6203 14.9089 25.1646 14.751 25.7219 14.7375C26.2792 14.724 26.8304 14.8555 27.3219 15.1191L27.346 15.132C27.7808 15.3595 28.287 15.4079 28.7568 15.267C29.2267 15.1261 29.623 14.807 29.8615 14.3776C29.8696 14.3655 29.876 14.3526 29.8825 14.3405C30.5529 13.2707 30.9076 12.0328 30.9056 10.7697C30.9058 10.3103 30.7593 9.86289 30.4876 9.49279C30.216 9.12269 29.8333 8.8493 29.3955 8.71253Z" fill="red"/> -->
  <!-- <path d="M83.849 8.61577C82.6831 8.61577 81.5189 8.67796 80.624 8.74258V4.30758C80.624 3.11867 79.8178 2.1543 77.936 2.1543H76.8629C74.9803 2.1543 74.1741 3.11867 74.1741 4.30758V8.66908C73.833 8.64 73.4654 8.61981 73.0978 8.61981C71.9102 8.61981 70.9475 9.42749 70.9475 11.3118V12.3885C70.9475 14.2736 71.9102 15.0813 73.0978 15.0813C73.4654 15.0813 73.833 15.0611 74.1741 15.0312V19.9274C74.1741 25.8501 76.5928 28.0042 83.0427 28.0042C84.2303 28.0042 85.1922 27.1965 85.1922 25.3114V24.2307C85.1922 22.3464 84.2303 21.5387 83.0427 21.5387H82.2365C81.8324 21.5385 81.4431 21.3864 81.1457 21.1123C80.8483 20.8383 80.6644 20.4624 80.6304 20.059V20.0259C80.6304 19.9912 80.6256 19.9581 80.6256 19.9233C80.6256 19.904 80.6256 19.8846 80.6256 19.8652V19.6536V14.9496C81.5205 15.0142 82.6847 15.0772 83.8506 15.0772C85.0374 15.0772 86 14.2696 86 12.3844V11.3078C86 9.42345 85.0374 8.61577 83.849 8.61577Z" fill="red"/> -->
  <!-- <path d="M12.8998 8.61557C11.734 8.61557 10.5698 8.67776 9.67488 8.74238V7.53812C9.67488 7.25258 9.78811 6.97873 9.98966 6.77682C10.1912 6.57491 10.4646 6.46148 10.7496 6.46148H12.0936C13.2812 6.46148 14.2438 5.65379 14.2438 3.76946V2.69201C14.2438 0.807685 13.2812 0 12.0936 0H10.4811C10.436 0 10.3916 0 10.3465 0C6.41364 0 3.22496 3.32847 3.22496 7.26916V8.66484C2.88473 8.63576 2.51789 8.61557 2.15024 8.61557C0.96265 8.61557 0 9.42325 0 11.3076V12.3842C0 14.2694 0.96265 15.077 2.15024 15.077C2.51789 15.077 2.88473 15.0569 3.22496 15.027V25.8459C3.22496 27.0356 4.0312 28 5.91216 28H6.98768C8.86864 28 9.67488 27.0356 9.67488 25.8459V14.9494C10.5698 15.014 11.7348 15.077 12.8998 15.077C14.0866 15.077 15.0485 14.2694 15.0485 12.3842V11.3076C15.0501 9.42406 14.0882 8.61557 12.8998 8.61557Z" fill="red"/> -->
  <!-- </g> -->
  <defs>
   <linearGradient y2="-0.12358" x2="0.80163" y1="1.12891" x1="0.19804" id="svg_4">
    <stop stop-color="#FF7488"/>
    <stop stop-color="#FF077D" offset="0.3"/>
    <stop stop-color="#7C12AA" offset="1"/>
   </linearGradient>
   <!-- <clipPath id="clip0">
      <path d="M0 0H86V28H0V0Z" fill="red"/>
    </clipPath> -->
  </defs>
  <g stroke="null" id="svg_7">
   <path stroke="null" id="svg_6" fill="url(#svg_4)" d="m150.71652,51.02783c-10.524,-0.01373 -20.75332,3.48089 -29.0759,9.93308l-0.09937,0.07969l-0.32517,0.25433l-22.0599,17.24385l-41.85493,32.73591c-2.83552,2.1965 -6.32925,3.36681 -9.9135,3.31959c-3.58376,-0.04673 -7.04601,-1.30806 -9.82249,-3.57835c-2.77698,-2.27029 -4.70439,-5.41524 -5.46886,-8.92323c-0.76496,-3.508 -0.32123,-7.17194 1.25837,-10.39462c1.57961,-3.22317 4.20212,-5.81518 7.44054,-7.35445c3.23793,-1.53927 6.90088,-1.93429 10.39216,-1.12161c3.49078,0.81268 6.60425,2.78584 8.83272,5.59774c2.22896,2.81191 3.44159,6.29728 3.4406,9.88743c-0.00246,0.6282 -0.04083,1.25591 -0.11511,1.87969l31.99899,-25.03169l-18.26806,-14.30403l-0.26958,-0.21055l-0.13528,-0.10724c-7.04109,-5.44396 -15.46451,-8.80217 -24.31445,-9.69395c-8.84994,-0.89178 -17.77169,0.71862 -25.75435,4.64855c-7.98265,3.92969 -14.70644,10.02232 -19.40886,17.58535c-4.70193,7.56352 -7.19408,16.29589 -7.19408,25.20633c0,8.91044 2.49215,17.64232 7.19408,25.20584c4.70242,7.56352 11.42621,13.65566 19.40886,17.58574c7.98265,3.93008 16.90441,5.54019 25.75435,4.64831c8.84994,-0.89139 17.27336,-4.24984 24.31445,-9.69361l0.03985,-0.02804l0.42454,-0.33353l22.02006,-17.19269l41.85542,-32.74771c2.83454,-2.196 6.32778,-3.36632 9.91104,-3.31959c3.58277,0.04673 7.04502,1.30708 9.82151,3.57589c2.77698,2.2693 4.70537,5.41327 5.47082,8.92028c0.76594,3.50652 0.32369,7.16997 -1.25395,10.39314c-1.57764,3.22317 -4.19819,5.81616 -7.43463,7.3574c-3.23645,1.54074 -6.89842,1.93872 -10.3897,1.1285c-3.49078,-0.81022 -6.60523,-2.78042 -8.83616,-5.58987c-2.23044,-2.80945 -3.44601,-6.29236 -3.44847,-9.88251c0.00197,-0.62919 0.04034,-1.25837 0.11511,-1.88313l-32.00341,25.03169l18.31971,14.33158l0.13479,0.10724l0.22236,0.17119c5.99228,4.63257 13.0009,7.76669 20.44438,9.14215c7.44398,1.37545 15.10737,0.95239 22.35507,-1.23378c7.2477,-2.18617 13.87064,-6.07246 19.31883,-11.33618c5.4482,-5.26421 9.56423,-11.75384 12.00718,-18.93119c2.44246,-7.17686 3.14151,-14.83385 2.03858,-22.33588c-1.10292,-7.50154 -3.97632,-14.63166 -8.38112,-20.79809c-4.4048,-6.16642 -10.21408,-11.19155 -16.94573,-14.65838c-6.73215,-3.46668 -14.19187,-5.27494 -21.7613,-5.27464l0,-0.01195z"/>
  </g>
 </g>
</svg>